<svg xmlns="http://www.w3.org/2000/svg" width="64" height="64" viewBox="0 0 64 64" version="1.1"><path d="M 4.472 5.213 C 4.194 5.938, 4.086 18.449, 4.233 33.016 C 4.500 59.500, 4.500 59.500, 10 59.500 C 15.500 59.500, 15.500 59.500, 15.500 32 C 15.500 4.500, 15.500 4.500, 10.239 4.197 C 6.580 3.987, 4.824 4.296, 4.472 5.213 M 20.472 5.213 C 20.194 5.938, 20.086 18.449, 20.233 33.016 C 20.500 59.500, 20.500 59.500, 26 59.500 C 31.500 59.500, 31.500 59.500, 31.500 32 C 31.500 4.500, 31.500 4.500, 26.239 4.197 C 22.580 3.987, 20.824 4.296, 20.472 5.213 M 39.315 5.007 C 38.114 5.491, 36.719 6.700, 36.216 7.694 C 35.565 8.979, 37.158 16.428, 41.733 33.500 C 45.270 46.700, 48.789 58.145, 49.552 58.934 C 50.618 60.036, 51.789 60.151, 54.610 59.434 C 56.629 58.920, 58.842 57.600, 59.528 56.500 C 60.586 54.804, 59.788 50.852, 54.283 30.500 C 50.712 17.300, 47.332 5.938, 46.773 5.250 C 46.213 4.563, 44.798 4.029, 43.628 4.063 C 42.457 4.098, 40.517 4.523, 39.315 5.007" stroke="none" fill="#000000" fill-rule="evenodd"/><path d="" stroke="none" fill="#080404" fill-rule="evenodd"/><path d="" stroke="none" fill="#040404" fill-rule="evenodd"/></svg>